<svg xmlns="http://www.w3.org/2000/svg" viewBox="0 0 64 64">
  <rect width="64" height="64" rx="8" fill="#c31432"/>
  <rect x="4" y="4" width="56" height="56" rx="6" fill="url(#grad1)"/>
  
  <defs>
    <linearGradient id="grad1" x1="0%" y1="0%" x2="100%" y2="100%">
      <stop offset="0%" style="stop-color:#0f7c3c;stop-opacity:1" />
      <stop offset="100%" style="stop-color:#2d5016;stop-opacity:1" />
    </linearGradient>
  </defs>
  
  <!-- Kalendertürchen -->
  <rect x="12" y="12" width="18" height="20" rx="2" fill="#fff" opacity="0.9"/>
  <rect x="34" y="12" width="18" height="20" rx="2" fill="#fff" opacity="0.9"/>
  <rect x="12" y="34" width="18" height="18" rx="2" fill="#fff" opacity="0.9"/>
  <rect x="34" y="34" width="18" height="18" rx="2" fill="#c31432" opacity="0.9"/>
  
  <!-- Zahlen -->
  <text x="21" y="26" font-family="Arial" font-size="10" font-weight="bold" fill="#c31432" text-anchor="middle">1</text>
  <text x="43" y="26" font-family="Arial" font-size="10" font-weight="bold" fill="#c31432" text-anchor="middle">2</text>
  <text x="21" y="46" font-family="Arial" font-size="10" font-weight="bold" fill="#c31432" text-anchor="middle">3</text>
  <text x="43" y="46" font-family="Arial" font-size="10" font-weight="bold" fill="#fff" text-anchor="middle">24</text>
  
  <!-- Stern -->
  <polygon points="32,6 34,10 38,10 35,13 36,17 32,14 28,17 29,13 26,10 30,10" fill="#ffd700"/>
</svg>
